<svg width="512" height="512" viewBox="0 0 512 512" fill="none" xmlns="http://www.w3.org/2000/svg">
  <!-- Cerchio blu di sfondo -->
  <circle cx="256" cy="256" r="256" fill="#2563EB"/>
  
  <!-- Lettera R bianca stilizzata come strada (versione grande) -->
  <path d="M150 130 L150 382 M150 130 L245 130 C285 130 310 155 310 195 C310 220 295 238 270 245 L325 382 M150 245 L245 245 C270 245 285 228 285 208 C285 188 270 170 245 170 L150 170" 
        stroke="white" stroke-width="30" stroke-linecap="round" stroke-linejoin="round" fill="none"/>
  
  <!-- Strada curva nella parte bassa della R -->
  <path d="M165 295 Q256 245 345 295 L345 382 Q256 332 165 382 Z" fill="white" opacity="0.3"/>
  
  <!-- Linee tratteggiate sulla strada -->
  <line x1="256" y1="270" x2="256" y2="287" stroke="#2563EB" stroke-width="6" stroke-linecap="round"/>
  <line x1="256" y1="302" x2="256" y2="319" stroke="#2563EB" stroke-width="6" stroke-linecap="round"/>
  <line x1="256" y1="334" x2="256" y2="351" stroke="#2563EB" stroke-width="6" stroke-linecap="round"/>
  
  <!-- Auto stilizzata sulla strada -->
  <g transform="translate(238, 218) scale(2.8)">
    <path d="M2 6 L3 2 L11 2 L12 6 Z" fill="white"/>
    <path d="M0 6 L0 10 L2 10 L2 8 L12 8 L12 10 L14 10 L14 6 Z" fill="white"/>
    <rect x="4" y="3" width="2" height="2" fill="#2563EB" opacity="0.7"/>
    <rect x="8" y="3" width="2" height="2" fill="#2563EB" opacity="0.7"/>
  </g>
</svg>
