<svg width="200" height="200" viewBox="0 0 200 200" fill="none" xmlns="http://www.w3.org/2000/svg">
  <!-- Cerchio blu di sfondo -->
  <circle cx="100" cy="100" r="100" fill="#2563EB"/>
  
  <!-- Lettera R stradale -->
  <path d="M65 45 L65 155 L110 155 C125 155 135 145 135 130 C135 120 130 112 122 108 C130 104 135 96 135 86 C135 71 125 61 110 61 L65 61 Z M85 75 L105 75 C112 75 117 80 117 87 C117 94 112 99 105 99 L85 99 Z M85 113 L108 113 C115 113 120 118 120 125 C120 132 115 137 108 137 L85 137 Z" fill="white"/>
  
  <!-- Strada curva -->
  <path d="M65 110 Q100 85 135 110 L135 155 L65 155 Z" fill="white" opacity="0.95"/>
  
  <!-- Linee tratteggiate sulla strada -->
  <path d="M85 120 L85 130 M95 115 L95 128 M105 113 L105 126 M115 115 L115 128" stroke="#2563EB" stroke-width="3" stroke-linecap="round"/>
  
  <!-- Auto stilizzata in cima -->
  <g transform="translate(93, 75)">
    <path d="M2 8 L4 2 L10 2 L12 8 Z M0 8 L0 12 L2 12 L2 10 L12 10 L12 12 L14 12 L14 8 Z" fill="white"/>
    <rect x="3" y="3" width="3" height="3" fill="#2563EB" opacity="0.6"/>
    <rect x="8" y="3" width="3" height="3" fill="#2563EB" opacity="0.6"/>
  </g>
</svg>
