<svg width="200" height="200" viewBox="0 0 200 200" fill="none" xmlns="http://www.w3.org/2000/svg">
  <!-- Cerchio blu di sfondo -->
  <circle cx="100" cy="100" r="100" fill="#2563EB"/>
  
  <!-- Lettera R bianca stilizzata come strada -->
  <path d="M60 50 L60 150 M60 50 L95 50 C110 50 120 60 120 75 C120 85 115 92 105 95 L125 150 M60 95 L95 95 C105 95 110 88 110 80 C110 72 105 65 95 65 L60 65" 
        stroke="white" stroke-width="12" stroke-linecap="round" stroke-linejoin="round" fill="none"/>
  
  <!-- Strada curva nella parte bassa della R -->
  <path d="M65 115 Q100 95 135 115 L135 150 Q100 130 65 150 Z" fill="white" opacity="0.3"/>
  
  <!-- Linee tratteggiate sulla strada -->
  <line x1="100" y1="105" x2="100" y2="112" stroke="#2563EB" stroke-width="2.5" stroke-linecap="round"/>
  <line x1="100" y1="118" x2="100" y2="125" stroke="#2563EB" stroke-width="2.5" stroke-linecap="round"/>
  <line x1="100" y1="131" x2="100" y2="138" stroke="#2563EB" stroke-width="2.5" stroke-linecap="round"/>
  
  <!-- Auto stilizzata sulla strada -->
  <g transform="translate(93, 85)">
    <path d="M2 6 L3 2 L11 2 L12 6 Z" fill="white"/>
    <path d="M0 6 L0 10 L2 10 L2 8 L12 8 L12 10 L14 10 L14 6 Z" fill="white"/>
    <rect x="4" y="3" width="2" height="2" fill="#2563EB" opacity="0.7"/>
    <rect x="8" y="3" width="2" height="2" fill="#2563EB" opacity="0.7"/>
  </g>
</svg>
